<?xml version="1.0" encoding="utf-8"?>
<!-- Generator: Adobe Illustrator 24.2.0, SVG Export Plug-In . SVG Version: 6.00 Build 0)  -->
<svg version="1.1" id="Layer_1" xmlns="http://www.w3.org/2000/svg" xmlns:xlink="http://www.w3.org/1999/xlink" x="0px" y="0px"
	 viewBox="0 0 566.93 240.94" style="enable-background:new 0 0 566.93 240.94;" xml:space="preserve">
<style type="text/css">
	.st0{fill:#231F20;}
	.st1{font-family:'Charlotte';}
	.st2{font-size:209.5691px;}
</style>
<text transform="matrix(1 0 0 1 7.5693 181.9775)" class="st0 st1 st2">Mimóza</text>
<g>
	<g>
		<path d="M224.17,222.5v-18.65h5.08c1.86,0,3.43,0.28,4.72,0.84s2.33,1.31,3.13,2.24c0.8,0.94,1.38,1.96,1.74,3.08
			c0.36,1.12,0.54,2.24,0.54,3.38c0,1.41-0.25,2.67-0.74,3.79c-0.49,1.12-1.16,2.07-2.01,2.86s-1.83,1.4-2.94,1.82
			c-1.11,0.42-2.28,0.63-3.52,0.63H224.17z M226.67,220.1h3.02c1.01,0,1.96-0.16,2.82-0.46c0.87-0.31,1.63-0.76,2.27-1.34
			c0.65-0.58,1.15-1.3,1.51-2.15c0.36-0.85,0.54-1.83,0.54-2.93c0-1.14-0.19-2.14-0.57-3c-0.38-0.87-0.89-1.59-1.55-2.18
			c-0.65-0.58-1.39-1.03-2.22-1.33s-1.69-0.45-2.58-0.45h-3.25V220.1z"/>
		<path d="M248.75,203.86h12.12v2.4h-9.62v5.67h8.59v2.42h-8.59v5.75h9.98v2.4h-12.48V203.86z"/>
		<path d="M280.34,207.18c-0.64-0.33-1.33-0.61-2.09-0.85c-0.76-0.24-1.5-0.36-2.22-0.36c-1,0-1.79,0.23-2.39,0.7
			c-0.59,0.46-0.89,1.08-0.89,1.86c0,0.58,0.19,1.08,0.58,1.48c0.39,0.4,0.89,0.75,1.5,1.04c0.61,0.29,1.26,0.57,1.95,0.83
			c0.57,0.21,1.13,0.45,1.7,0.74c0.57,0.28,1.08,0.63,1.53,1.04c0.46,0.41,0.82,0.92,1.08,1.52c0.27,0.6,0.4,1.34,0.4,2.22
			c0,1-0.25,1.9-0.74,2.71c-0.49,0.81-1.19,1.44-2.1,1.91c-0.91,0.46-2,0.7-3.28,0.7c-0.81,0-1.59-0.09-2.33-0.27
			s-1.44-0.43-2.08-0.74s-1.2-0.63-1.7-0.95l1.11-1.96c0.41,0.29,0.89,0.57,1.42,0.84c0.53,0.27,1.09,0.48,1.68,0.63
			c0.58,0.16,1.15,0.23,1.7,0.23c0.6,0,1.19-0.1,1.75-0.31c0.57-0.21,1.04-0.53,1.42-0.98c0.38-0.45,0.57-1.04,0.57-1.78
			c0-0.62-0.17-1.14-0.5-1.57c-0.34-0.43-0.77-0.79-1.32-1.1s-1.13-0.57-1.77-0.81c-0.6-0.21-1.2-0.45-1.79-0.72
			c-0.59-0.28-1.14-0.61-1.65-0.99s-0.92-0.86-1.24-1.43c-0.32-0.57-0.48-1.25-0.48-2.06c0-0.98,0.24-1.83,0.71-2.57
			c0.47-0.73,1.12-1.31,1.95-1.73c0.83-0.42,1.77-0.65,2.84-0.68c1.2,0,2.27,0.15,3.19,0.44c0.92,0.29,1.73,0.64,2.44,1.06
			L280.34,207.18z"/>
		<path d="M290.86,203.86h2.5v18.65h-2.5V203.86z"/>
		<path d="M318.46,220.9c-0.26,0.22-0.62,0.44-1.08,0.66c-0.46,0.21-0.98,0.41-1.53,0.58s-1.13,0.31-1.71,0.41
			c-0.58,0.1-1.14,0.15-1.68,0.15c-1.5,0-2.85-0.23-4.05-0.7c-1.2-0.46-2.23-1.11-3.08-1.93c-0.85-0.83-1.5-1.8-1.95-2.91
			c-0.45-1.12-0.67-2.32-0.67-3.61c0-1.58,0.25-2.98,0.76-4.2s1.2-2.26,2.08-3.11c0.88-0.85,1.9-1.5,3.06-1.93
			c1.16-0.44,2.38-0.66,3.65-0.66c1.1,0,2.11,0.12,3.04,0.37c0.93,0.25,1.75,0.58,2.45,0.99l-0.83,2.3c-0.36-0.19-0.8-0.37-1.3-0.55
			s-1.03-0.33-1.56-0.44c-0.53-0.11-1.02-0.17-1.47-0.17c-1.12,0-2.12,0.17-3,0.5c-0.89,0.34-1.65,0.82-2.29,1.44
			c-0.64,0.63-1.14,1.38-1.48,2.27c-0.34,0.89-0.52,1.88-0.52,2.98c0,1,0.17,1.92,0.52,2.77c0.34,0.85,0.84,1.58,1.48,2.19
			c0.64,0.61,1.41,1.08,2.28,1.41s1.86,0.49,2.94,0.49c0.62,0,1.24-0.06,1.86-0.18c0.62-0.12,1.14-0.31,1.57-0.57v-3.66h-3.69v-2.42
			h6.21V220.9z"/>
		<path d="M344.53,223.1l-14.42-14.62l0.72,0.18l0.05,13.85h-2.5v-19.21h0.13l14.24,14.67l-0.57-0.13l-0.05-13.98h2.5v19.24H344.53z
			"/>
	</g>
</g>
</svg>
